<?xml version="1.0" standalone="no"?>
<!DOCTYPE svg PUBLIC "-//W3C//DTD SVG 20010904//EN"
 "http://www.w3.org/TR/2001/REC-SVG-20010904/DTD/svg10.dtd">
<svg version="1.0" xmlns="http://www.w3.org/2000/svg"
 width="400.000000pt" height="400.000000pt" viewBox="0 0 400.000000 400.000000"
 preserveAspectRatio="xMidYMid meet">
<metadata>
Created by potrace 1.11, written by Peter Selinger 2001-2013
</metadata>
<g transform="translate(0.000000,400.000000) scale(0.100000,-0.100000)"
fill="#000000" stroke="none">
<path d="M2170 3788 c-67 -12 -147 -57 -191 -108 -38 -45 -40 -46 -106 -48
-38 -1 -86 -4 -108 -7 -144 -15 -190 -21 -190 -25 0 -1 -13 -4 -30 -6 -68 -10
-213 -51 -285 -81 -8 -3 -17 -7 -20 -7 -24 -6 -200 -104 -253 -141 -76 -53
-197 -170 -197 -191 0 -8 -4 -14 -9 -14 -20 0 -33 -70 -22 -116 11 -44 6 -67
-26 -101 -6 -7 -16 -27 -22 -45 -10 -31 -14 -33 -53 -31 -96 3 -267 -120 -316
-227 -54 -120 -60 -259 -15 -373 9 -23 21 -45 26 -48 11 -7 -8 -14 -68 -24
-139 -23 -261 -175 -272 -338 -5 -77 7 -120 48 -174 30 -41 179 -153 179 -136
0 5 4 3 8 -3 9 -15 112 -67 112 -57 0 5 4 3 8 -2 4 -6 60 -35 124 -65 l118
-53 -6 -136 c-7 -154 -9 -610 -3 -716 l4 -70 55 -28 c69 -36 239 -93 330 -111
14 -3 36 -8 50 -11 14 -3 39 -8 55 -10 17 -3 37 -8 45 -10 8 -3 33 -7 55 -10
22 -3 51 -8 65 -10 14 -2 52 -6 85 -10 33 -3 74 -8 90 -10 187 -25 931 -25
1025 0 8 2 42 6 75 9 82 8 102 12 245 47 69 17 129 35 134 40 6 5 17 9 26 9
22 0 135 56 211 106 124 81 212 208 243 350 15 71 19 361 7 512 -4 39 -4 72
-1 73 3 0 16 2 30 5 14 2 36 6 50 8 26 4 51 12 85 26 11 5 46 18 79 30 170 61
279 138 329 235 32 64 23 254 -16 303 -5 6 -7 12 -3 12 13 0 -50 102 -86 140
-40 41 -81 64 -135 75 -45 9 -209 9 -225 -1 -7 -4 7 11 32 33 48 43 98 123
108 176 26 127 -16 286 -100 373 -28 30 -98 72 -129 78 -8 2 -26 6 -41 10 -15
4 -51 9 -80 11 -29 1 -56 3 -60 4 -4 1 -9 10 -13 21 -3 11 -25 43 -49 72 -33
40 -44 65 -49 103 -8 58 -39 107 -110 176 -96 93 -273 205 -309 196 -10 -3
-16 0 -15 5 3 16 -264 101 -337 107 -4 1 -2 11 6 24 21 31 17 111 -8 138 -39
43 -106 61 -184 47z m901 -888 c31 -30 43 -62 28 -71 -8 -5 -17 -9 -20 -9 -7
0 -109 97 -109 104 0 3 12 6 28 8 27 4 44 -4 73 -32z m-2167 -32 c-70 -79 -71
-80 -77 -64 -4 9 1 32 10 51 14 30 22 35 51 35 l35 0 -19 -22z"/>
</g>
</svg>
